<!-- Created with Inkscape (http://www.inkscape.org/) -->
<svg width="114.98" height="94.747" version="1.1" viewBox="0 0 114.98 94.747" xmlns="http://www.w3.org/2000/svg">
 <g transform="translate(-28.302 .0041)" stroke-linecap="round" stroke-linejoin="round">
  <path d="m70.81 94.076c-2.462-0.27728-8.4551-1.6305-11.009-2.4857-7.0673-2.3668-14.251-7.0508-19.79-12.903-2.5876-2.7342-6.4006-7.7519-6.1108-8.0416 0.0723-0.0723 1.0692 0.70816 2.2154 1.7344 7.9206 7.0915 16.581 10.649 25.917 10.646 10.359-4e-3 17.484-3.1196 30.854-13.494 6.0316-4.6801 8.8337-6.585 12.253-8.3301 3.0084-1.5352 7.2599-2.9555 10.059-3.3604 1.9668-0.28446 7.7657-0.41483 7.7657-0.17459 0 0.6183-2.1696 6.0001-3.4401 8.5335-2.8831 5.7487-5.8354 9.8452-10.205 14.16-9.2739 9.1576-21.071 14.027-33.621 13.879-2.1188-0.0251-4.3191-0.0982-4.8895-0.16248z" fill="#0d6b9b" stroke="#0d6b9b"/>
  <g transform="translate(-553.27,-84.104)" fill="#1ba6d7" stroke="#1ba6d7">
   <path d="m610.9 166.2c-6.0614-0.77432-12.39-3.4723-17.957-7.6557-0.84216-0.63278-2.842-2.3201-4.4441-3.7495-2.2886-2.042-3.1001-2.9831-3.7864-4.3911-1.0377-2.1289-2.7617-6.9553-2.6278-7.3568 0.0518-0.15545 0.67376 0.46856 1.3821 1.3867 4.0028 5.1883 10.432 9.2108 17.373 10.87 2.3276 0.5563 3.2338 0.61523 7.3941 0.48078 3.8306-0.1238 5.2536-0.29631 7.4084-0.89815 5.2946-1.4788 9.1816-3.4668 17.187-8.7903 9.3849-6.2405 13.953-8.7398 19.159-10.481 4.7035-1.5737 7.7602-2.0771 12.549-2.0667 4.1582 9e-3 5.7672 0.21055 10.594 1.3269 2.9823 0.68978 2.9168 0.56322 2.0495 3.9582l-0.5299 2.0744-4.427 0.18148c-8.7096 0.35705-14.013 2.5743-23.643 9.8852-10.312 7.8282-14.745 10.735-19.424 12.738-5.6974 2.4384-11.962 3.2924-18.256 2.4884z"/>
   <path d="m601.56 148.19c-4.9476-1.0881-8.269-2.895-11.71-6.3701-3.8191-3.8574-5.6704-7.9977-5.9753-13.363-0.19985-3.517 0.17928-6.26 1.3859-10.027 1.6712-5.2173 4.1755-9.4789 11.87-20.199 2.5735-3.5857 5.6998-8.1196 6.9472-10.075 1.2475-1.9558 2.3053-3.556 2.3508-3.556s2.508 3.6005 5.4723 8.0011 6.7876 10.065 8.4963 12.587c3.1985 4.7211 5.5738 9.1494 6.6304 12.36 3.9895 12.125-0.61243 23.783-11.392 28.859-4.5462 2.1405-9.5638 2.7765-14.076 1.7842zm-6.0275-16.812c0.56428-0.26777 1.3512-0.96548 1.7487-1.5505 0.88344-1.3001 0.96315-3.5525 0.24809-7.0102-0.36831-1.7809-0.43868-3.3318-0.31409-6.9215 0.0883-2.5445 0.2019-4.9462 0.25241-5.3371 0.19797-1.5324-0.7045-0.86762-2.4419 1.7988-3.8558 5.9174-5.8208 11.134-5.5588 14.756 0.14388 1.9891 0.71492 2.9984 2.311 4.0847 1.1612 0.79027 2.3485 0.84716 3.7546 0.1799z"/>
   <path d="m690.36 131.38c-0.10866-0.10866-0.19756-1.3612-0.19756-2.7835 0-3.0044-0.0591-2.9457 2.9664-2.9457 2.9754 0 3.169 0.28689 2.7699 4.1052l-0.19038 1.8215h-2.5754c-1.4165 0-2.6643-0.0889-2.773-0.19755z"/>
   <path d="m682.79 139.76c-0.2209-0.26617-0.32408-1.1512-0.26926-2.3095l0.0889-1.878 1.462-0.0925c0.80412-0.0509 1.7767-0.0136 2.1612 0.0829 0.66469 0.16683 0.69491 0.28108 0.61231 2.3151l-0.0869 2.1396-1.8051 0.087c-1.3029 0.0628-1.9047-0.0331-2.1632-0.34455z"/>
   <path d="m687.81 149.97c-0.16872-0.31526-0.30676-1.6392-0.30676-2.9422 0-3.2067 0.15747-3.3468 3.638-3.237 2.6558 0.0838 2.6883 0.094 2.9645 0.92456 0.15657 0.47094 0.18795 1.9352 0.0715 3.3338l-0.20775 2.494h-2.9263c-2.5899 0-2.9616-0.0659-3.2331-0.57319z"/>
   <path d="m678.6 152.45c-0.39701-1.0442-0.36277-2.6036 0.0666-3.033 0.4606-0.4606 2.6806-0.4606 3.1412 0 0.19558 0.19558 0.35561 1.0481 0.35561 1.8945 0 1.7243-0.19337 1.8986-2.1059 1.8986-0.98157 0-1.2147-0.12156-1.4574-0.76013z"/>
   <path d="m674.46 161.51c-0.18198-0.34004-0.29011-1.1764-0.2403-1.8585 0.0883-1.2095 0.12293-1.2466 1.3961-1.4969 0.85204-0.16751 1.552-0.14437 2.015 0.0666 0.64611 0.29439 0.70157 0.47548 0.62064 2.0268l-0.0889 1.7036-1.6859 0.0883c-1.4563 0.0763-1.731 4e-3 -2.0168-0.52991z"/>
  </g>
  <g transform="translate(-553.27,-84.104)" fill="#09826e" stroke="#09826e">
   <path d="m686.17 120.1c-0.84868-0.21203-1.0275-0.62174-1.0326-2.3657-5e-3 -1.8361 0.38407-2.1589 2.6051-2.1589h1.4633l0.19412 1.2139c0.28506 1.7827-0.045 3.142-0.81299 3.348-0.72104 0.19343-1.5441 0.18072-2.4169-0.0373z"/>
   <path d="m635.05 133.72c-0.81323-0.15057-2.6369-1.6178-3.1487-2.5333-0.43291-0.77435-0.34052-3.0897 0.16892-4.2331 0.57258-1.2851 2.0642-2.1592 4.0758-2.3885 1.7961-0.20472 1.8458-0.2355 5.5695-3.4434 0.89936-0.77478 2.6-2.1326 3.7793-3.0173 1.1792-0.88474 2.8469-2.1511 3.7059-2.8141 0.85898-0.663 1.6603-1.2054 1.7808-1.2054 0.12048 0 0.39254 0.2778 0.60458 0.61734 0.32026 0.51281 0.31314 0.72606-0.0421 1.2594-0.68476 1.0282-6.7052 8.1608-8.5803 10.165-1.39 1.4859-1.798 2.1608-2.1545 3.5633-0.50677 1.9941-2.2442 3.9528-3.5064 3.9528-0.40045 0-0.90568 0.0479-1.1227 0.10656-0.21706 0.0586-0.7256 0.0453-1.1301-0.0296z"/>
   <path d="m679.2 131.11c-0.73343-0.21007-1.6002-0.39472-1.9262-0.41033-1.2663-0.0607-1.4084-0.42117-1.6591-4.2113-0.26988-4.0788-0.41003-5.1964-0.82413-6.5719-0.97473-3.2377-1.6571-5.2401-2.1452-6.2949-0.30661-0.66265-0.55747-1.4294-0.55747-1.7039s-0.10971-0.49911-0.24381-0.49911c-0.13409 0-0.55449-0.63342-0.93421-1.4076-1.7056-3.4774-6.584-9.0023-10.824-12.258-10.723-8.2346-25.033-10.575-38.227-6.2526-1.3039 0.42719-2.698 0.94466-3.0981 1.1499-0.65928 0.3383-0.77858 0.29798-1.2741-0.43056-0.30069-0.44209-0.79969-1.2846-1.1089-1.8723l-0.5622-1.0685 2.429-1.0499c2.8996-1.2533 5.3962-2.0386 8.8002-2.7679 3.5772-0.76652 13.297-0.76865 16.891-0.0037 14.602 3.1074 26.209 12.023 32.265 24.784 2.1993 4.6339 3.5699 9.3147 4.0325 13.771 0.25284 2.4357 0.53408 7.5595 0.41266 7.5179-0.0621-0.0213-0.71301-0.21058-1.4464-0.42066z"/>
  </g>
  <g transform="translate(-553.27,-84.104)">
   <path d="m662.57 128.41c-0.34168-0.0913-0.52787-0.61157-0.65046-1.8177-0.0945-0.92943-0.25208-2.0233-0.35026-2.4307-0.57077-2.3688-0.54486-2.4888 0.64985-3.01 0.61925-0.27016 1.8722-0.8369 2.7844-1.2594 0.91214-0.42252 1.8711-0.76823 2.1309-0.76823 0.25988 0 0.55492-0.13335 0.65565-0.29633 0.38241-0.61875 0.73326-0.2447 1.1813 1.2594 0.48511 1.6285 0.92297 4.3296 1.1289 6.9639l0.12162 1.5558-3.5866-0.0344c-1.9726-0.0189-3.802-0.0919-4.0653-0.16221z" fill="#2ba274" stroke="#2ba274"/>
   <path d="m658.83 116.97c-0.15577-0.20148-0.37582-0.56636-0.48901-0.81083-0.28953-0.62538-0.82107-1.496-1.5416-2.525-0.33999-0.48558-0.70318-1.0311-0.80708-1.2123-0.10694-0.18648 1.1089-1.4616 2.802-2.9388l2.991-2.6094 0.55751 0.7163c1.1991 1.5407 3.3383 5.1557 3.3548 5.6694 0.0242 0.75426-6.4492 4.2519-6.8676 3.7106z" fill="#48b06d" stroke="#48b06d"/>
   <path d="m651.81 108.78c-0.11333-0.18338-0.83132-0.65026-1.5955-1.0375-0.76419-0.38725-1.6938-0.95145-2.0658-1.2538l-0.67637-0.54971 1.6993-3.4819c0.93461-1.9151 1.8017-3.4819 1.9268-3.4819 0.27912 0 4.1858 2.6813 5.5185 3.7876l0.97051 0.80561-2.7857 2.7726c-1.7219 1.7138-2.8644 2.6452-2.9918 2.4391z" fill="#3bab6f" stroke="#3bab6f"/>
  </g>
  <path d="m86.41 19.386-2.6305-0.45358 0.18571-1.7768c0.10214-0.97724 0.18571-2.7574 0.18571-3.9558v-2.179h1.1231c0.61769 0 1.9179 0.21566 2.8893 0.47925s2.2715 0.58002 2.8892 0.7032c1.4229 0.28376 1.5704 0.44291 1.1704 1.2628-0.1788 0.36647-0.60171 1.4392-0.93981 2.3839-0.76337 2.133-1.7398 4.0725-2.0264 4.0253-0.11892-0.0196-1.3999-0.23973-2.8467-0.4892z" fill="#71c763" fill-opacity=".99608" stroke="#71c763"/>
 </g>
</svg>
